<svg xmlns="http://www.w3.org/2000/svg" width="158" height="32" fill="none"><path fill="#171717" d="M41.523 5.28c-1.513.483-2.807 1.572-3.634 3.05-.67 1.213-.889 2.037-.889 3.515 0 3.298 1.778 5.647 4.867 6.44 1.575.42 3.759.264 5.428-.389l1.279-.482v-2.147c0-2.24.093-2.582.702-2.69.187-.032.327-.188.358-.405.047-.343.047-.343-2.23-.343s-2.277 0-2.23.343c.03.217.171.373.358.404.609.109.702.467.702 2.551v1.991l-.421.203c-.25.093-1.045.186-1.778.186-1.217 0-1.404-.046-2.09-.466-.936-.576-1.654-1.478-2.122-2.676-.312-.778-.358-1.182-.374-2.924 0-1.914.031-2.085.452-3.003.765-1.664 2.044-2.52 3.76-2.566 1.902-.047 3.01.637 3.82 2.38.297.622.438.777.687.746.312-.046.328-.155.328-1.757V5.529l-.78-.015c-.421-.016-1.264-.14-1.872-.28-1.435-.327-3.197-.311-4.32.047Zm15.833 0c-1.638.607-3.198 2.023-3.915 3.563-.39.824-.422 1.042-.422 2.909 0 1.99.016 2.053.515 3.08a6.94 6.94 0 0 0 3.104 3.095c.998.482 1.154.514 2.777.514 1.606 0 1.778-.032 2.776-.498 5.225-2.474 5.32-9.956.14-12.43-.764-.372-1.123-.435-2.526-.481-1.31-.047-1.794 0-2.45.249Zm4.04.965c1.31.731 2.09 2.396 2.261 4.884.156 2.49-.327 4.34-1.45 5.414-.843.809-1.67 1.089-3.01 1.01-.905-.046-1.217-.14-1.763-.528-.843-.591-1.576-1.789-1.856-3.049-.25-1.151-.25-3.422 0-4.651.202-.996.982-2.38 1.59-2.816 1.124-.84 2.964-.948 4.228-.264ZM80.362 5.11l-3.712.03v1.4c0 .763.047 1.416.125 1.447.25.156.686-.17 1.014-.746.5-.903 1.42-1.323 2.87-1.323h1.138l-.03 5.71-.047 5.724-.5.233c-.296.14-.514.358-.514.513 0 .25.188.265 2.293.234 2.044-.047 2.309-.078 2.356-.327.03-.187-.047-.264-.267-.264-.186 0-.466-.14-.638-.311-.297-.296-.313-.514-.313-5.927V5.872l1.296.077c1.621.078 2.214.39 2.76 1.416.297.56.468.731.702.7.28-.047.312-.171.312-1.509V5.094l-2.573-.016c-1.42-.015-4.243 0-6.272.031Zm59.54-.016c-3.26.046-4.539.109-4.617.233-.156.249-.031.436.312.436.156 0 .39.124.53.28.234.264.266.886.266 5.677 0 5.196-.016 5.414-.312 5.71-.172.17-.453.31-.624.31-.203 0-.312.11-.312.311 0 .312.109.312 4.835.312h4.835v-1.4c0-1.354-.015-1.4-.343-1.4-.265 0-.452.186-.686.653-.499.995-1.061 1.213-3.198 1.26l-1.778.031-.047-2.987-.031-3.002 1.357.093c1.482.11 2.106.358 2.371.95.094.201.297.357.484.357.296 0 .312-.093.312-1.633 0-1.634 0-1.634-.375-1.634-.234 0-.421.11-.483.296-.156.513-1.03.793-2.402.793h-1.264V5.918h1.466c.796 0 1.685.078 1.981.171.656.234 1.326.84 1.451 1.322.078.265.203.374.484.374.389 0 .39-.016.39-1.4 0-.778-.016-1.385-.032-1.37-.031.032-2.074.063-4.57.079Zm-47.81.436c0 .31.078.388.39.388.218 0 .452.125.546.312.172.31.234 10.935.078 11.215-.047.062-.343.171-.64.233-.389.078-.53.171-.499.358.047.218.375.25 2.356.296 2.105.03 2.293.015 2.293-.234 0-.155-.219-.373-.515-.513l-.499-.233-.047-2.396c-.016-1.384.031-2.473.109-2.55.078-.079.406-.094.718-.048.826.156 1.731 1.151 2.636 2.894 1.435 2.753 1.903 3.11 4.055 3.11 1.217 0 1.342-.03 1.342-.295 0-.202-.172-.358-.531-.482-.639-.202-1.388-.98-2.87-2.987-.593-.809-1.279-1.617-1.497-1.789-.219-.186-.406-.357-.406-.404 0-.031.297-.155.671-.249 1.014-.264 1.841-.809 2.371-1.54.421-.622.468-.793.468-1.898 0-1.104-.047-1.275-.468-1.882-.577-.824-1.576-1.353-2.901-1.54-.546-.078-2.387-.155-4.071-.155h-3.089v.389Zm7.019.824c.796.389 1.139 1.104 1.139 2.349 0 2.1-.998 2.955-3.51 2.97h-1.216v-5.6h1.528c1.123 0 1.654.063 2.059.28Zm13.665-.404c-.156.45-1.139 3.095-2.168 5.88-1.934 5.195-2.309 5.91-3.057 5.91-.219 0-.328.094-.328.312 0 .295.109.31 1.872.31 1.747 0 1.872-.015 1.872-.295 0-.202-.141-.326-.468-.404-.78-.171-.843-.53-.375-1.882.219-.654.499-1.431.624-1.727l.219-.529 4.398.093.718 1.758c.78 1.914.78 2.24-.032 2.333-.28.032-.405.14-.405.358 0 .28.14.296 2.574.296 2.464 0 2.573-.016 2.573-.311 0-.203-.109-.311-.312-.311-.608 0-1.232-.825-2.012-2.645-.421-.98-1.31-3.018-1.965-4.511a350.422 350.422 0 0 1-1.763-4.075c-.577-1.354-.577-1.37-1.123-1.37-.53 0-.561.047-.842.81Zm1.201 4.433c.483 1.167.858 2.147.827 2.178-.032.03-.827.03-1.763.015l-1.716-.046.78-2.147c.437-1.167.827-2.131.874-2.131.062 0 .499.964.998 2.13Zm5.444-4.978c.031.14.218.311.437.358.686.155.748.295 4.601 9.769l1.107 2.753.64.047c.624.046.64.03.889-.623.125-.373 1.076-3.08 2.106-6.004 1.029-2.94 1.981-5.475 2.137-5.647.14-.155.468-.295.717-.295.328 0 .437-.078.437-.311 0-.296-.109-.311-1.934-.311-1.856 0-1.95.015-1.919.31.016.203.125.312.359.312 1.139 0 1.108.575-.187 4.2a636.399 636.399 0 0 0-1.42 4.044c-.218.638-.452 1.23-.514 1.291-.063.063-.577-1.057-1.17-2.489-.593-1.43-1.373-3.36-1.747-4.277-.359-.918-.671-1.882-.671-2.147 0-.404.063-.482.468-.575.328-.063.468-.172.468-.374 0-.28-.156-.295-2.433-.295-2.2 0-2.418.03-2.371.264Zm28.669.047c0 .233.109.31.375.31.842 0 .873.234.873 5.865 0 2.847-.062 5.336-.14 5.538-.094.218-.312.451-.515.498-.39.124-.608.389-.499.575.047.063 2.215.125 4.835.125h4.742v-1.4c0-1.276-.031-1.4-.296-1.4-.188 0-.406.218-.593.575-.172.311-.484.7-.702.871-.437.327-2.418.623-3.65.545l-.764-.047-.047-5.63c-.031-4.963 0-5.647.218-5.865a.847.847 0 0 1 .546-.25c.187 0 .297-.108.297-.31 0-.296-.11-.311-2.34-.311-2.231 0-2.34.015-2.34.31ZM39.784 24.28c-2.09 1.074-2.402 3.843-.624 5.32.577.467 1.856.872 2.293.747.109-.046.39-.109.608-.155.218-.047.593-.233.811-.405.39-.31.406-.342.172-.715l-.25-.373-.514.31c-.313.203-.78.312-1.248.312-.655 0-.811-.078-1.342-.591-.327-.327-.64-.778-.686-1.012-.25-.964.28-2.053 1.217-2.535.592-.311 1.715-.218 2.137.171.296.265.327.265.623 0 .437-.389.406-.482-.358-.933-.811-.467-2.09-.53-2.84-.14Zm12.696 1.088c-.904 1.96-2.167 4.745-2.167 4.823 0 .03.202.062.467.062.36 0 .515-.11.702-.467l.25-.467h2.917l.187.467c.156.389.28.467.717.467h.515l-.515-1.136c-.28-.607-.92-1.99-1.419-3.064-.483-1.074-.92-1.976-.952-2.007-.03-.031-.343.56-.701 1.322Zm1.732 3.05c0 .077-.452.124-1.014.124-.593 0-1.014-.063-1.014-.156s.219-.638.484-1.213l.483-1.042.53 1.088c.281.591.515 1.136.531 1.198Zm9.202 1.835h.936v-2.177h.858c1.466 0 2.418-.747 2.418-1.898 0-1.416-1.03-2.147-3.01-2.147h-1.202v6.223Zm2.98-4.884c.39.342.374 1.011-.016 1.431-.266.264-.5.342-1.17.342h-.858v-.98c0-.544.047-1.042.125-1.104.187-.202 1.606.031 1.918.311Zm8.719 4.884h3.744v-.933h-2.808v-1.711h2.34v-.933h-2.34v-1.712h2.823l-.046-.435-.047-.42-3.666-.093v6.237Zm19.965-5.755c0 .451.016.467.78.467h.78v5.288h.936l.031-2.613.047-2.598.827-.046c.78-.047.811-.063.811-.514v-.45h-4.212v.466Zm12.87-.202c-1.154.59-1.778 1.633-1.794 2.893-.015 2.567 3.042 4.044 5.101 2.489 1.029-.778 1.451-2.085 1.076-3.345-.249-.886-.873-1.602-1.762-2.053-.64-.31-2.013-.31-2.621.016Zm2.355.918c.734.357 1.155 1.088 1.155 2.037 0 1.26-.874 2.07-2.2 2.07-1.669 0-2.714-1.82-1.856-3.236.624-1.027 1.81-1.385 2.901-.872Zm8.953-1.074c-.015.265 1.794 6.113 1.888 6.113.062 0 .39-.715.748-1.602.359-.87.702-1.68.78-1.789.078-.14.375.39.874 1.587.405.995.795 1.804.842 1.804.094 0 1.887-5.708 1.887-6.035 0-.109-.202-.187-.436-.187-.437 0-.468.047-.967 1.742-.281.965-.578 1.82-.624 1.883-.063.077-.39-.591-.733-1.478-.344-.887-.687-1.602-.734-1.602-.062 0-.405.715-.748 1.602-.343.886-.687 1.555-.749 1.478-.047-.063-.187-.436-.296-.825-.765-2.706-.796-2.8-1.279-2.8-.25 0-.453.047-.453.11Zm14.506 6.113h.936v-1.99l.015-1.976 1.903 1.975c1.045 1.105 1.966 1.991 2.028 1.991.062 0 .094-1.384.078-3.08l-.047-3.064-.421-.047c-.249-.03-.437 0-.437.078-.015.062-.031.949-.031 1.944-.015 1.012-.078 1.836-.14 1.836-.063 0-.952-.887-1.997-1.96L133.762 24v6.253ZM5.405.482c-.173.6-.785 1.264-1.296 1.422-.18.056-.33.119-.33.15 0 .024.158.127.354.222.534.26.958.695 1.225 1.248.125.277.251.506.267.506.015 0 .11-.166.196-.372.4-.924.824-1.343 1.476-1.485.29-.063.259-.134-.11-.26-.4-.135-.887-.483-1.06-.752a6.416 6.416 0 0 1-.322-.71C5.72.204 5.625 0 5.593 0c-.023 0-.11.221-.188.482Zm3.619 3.634c-.997.04-1.303.08-1.688.221-.455.174-1.397.253-2.143.166-.236-.023-.314.032-.683.403-.228.237-.55.553-.722.703-.228.198-.37.435-.526.838-.244.648-.44.861-1.147 1.233-.447.229-.565.347-.942.908-.235.356-.486.711-.557.79-.4.443-.471.933-.267 1.88.165.807.15 1.147-.118 1.818-.353.893-.33 1.027.267 1.683.361.395.558.688.675 1.035.197.522.424.814.903 1.122.173.119.471.34.667.506.526.442.644.466 1.343.276.487-.126.722-.15 1.272-.11.636.055.69.04 1.193-.198.761-.355 1.138-.34 1.766.08l.487.331.612-.055c1.382-.11 2.599-.695 3.47-1.66.51-.56.346-.142-.235.61-.597.758-1.57 1.31-2.661 1.492l-.48.087-.03.38-.024.387h.322c1.232 0 2.677-1.012 3.713-2.608.612-.932.824-1.161 1.617-1.714 1.468-1.035 2.128-2.015 2.167-3.224l.008-.316.102.316c.157.474.141 1.13-.047 1.533-.244.545-.95 1.351-1.563 1.786-1.17.83-1.248.908-1.82 1.761-1.202 1.794-2.317 2.648-3.816 2.924-.393.071-.723.158-.723.182 0 .024.181.237.4.466.393.41.401.41.754.363.416-.055.919-.331 1.382-.75.33-.3 1.06-1.351 1.476-2.15.4-.742 1.076-1.422 2.143-2.133.519-.355 1.154-.837 1.406-1.082l.463-.45.306.347c.667.75.926 1.81.667 2.71-.196.695-.165 1.217.11 1.699.126.221.267.427.314.458.204.127.047.553-.282.735-.102.055-.102.095.023.316.134.245.134.26.008.498-.102.174-.118.276-.063.387.063.127.032.206-.196.427-.22.221-.275.34-.275.585a.877.877 0 0 1-.165.521c-.149.197-.196.205-.84.205a5.82 5.82 0 0 1-1.46-.197c-.809-.198-1.013-.182-1.099.095-.024.079-.094.56-.165 1.082-.07.514-.18 1.099-.243 1.304-.07.198-.503 1.106-.958 2.015-.73 1.438-.84 1.62-.91 1.47-.134-.293.148-1.138.706-2.15.644-1.17.777-1.572.973-2.923.157-1.09.157-1.09 0-1.399-.078-.174-.196-.324-.25-.348-.056-.015-.08-.055-.056-.086.047-.048 1.02.19 2.183.545.44.134.84.197 1.232.197.66 0 .738-.07.738-.624 0-.237.032-.324.118-.324.196 0 .125-.102-.212-.348l-.322-.22.518-.293c.51-.284.518-.3.4-.466-.062-.095-.172-.174-.235-.174-.212 0-.11-.158.204-.316.37-.19.393-.324.102-.664-.274-.324-.494-.822-.494-1.114 0-.134.07-.466.157-.735.259-.837.157-1.825-.244-2.339l-.165-.205-.557.403c-.314.221-.926.648-1.366.948-.44.308-.99.759-1.217 1.012-.337.37-1.335 1.99-1.515 2.457-.024.063.031.26.118.434.314.617.141 1.391-.385 1.739-.361.237-.644.308-.99.245-.329-.064-.824-.474-.824-.688 0-.087-.054-.15-.125-.15-.094 0-.118.04-.07.174.463 1.454.447 1.865-.095 2.916-.33.64-.377.782-.369 1.209 0 .545.11.797.644 1.5.4.522.714 1.225.722 1.597 0 .347.22.964.479 1.343.228.332.495 1.09.581 1.62.055.363.298.624.58.624.127 0 .464-.087.747-.198.4-.15.667-.197 1.162-.197.777 0 1.083-.127 1.727-.727.486-.45.957-1.17 1.091-1.683.11-.41.196-.506.597-.687.534-.237.55-.308.36-1.589-.038-.26-.007-.323.22-.545.15-.134.605-.434 1.013-.656.997-.545 1.13-.734 1.076-1.54-.024-.348-.15-.917-.299-1.383-.306-.964-.353-1.802-.117-2.252.22-.419.761-1.043 1.9-2.173.596-.6 1.193-1.28 1.42-1.628.519-.79.896-1.84.911-2.52l.016-.514-.236.008c-.125.008-.69.174-1.256.38-.557.197-1.099.355-1.193.363-.157 0-.495-.332-.495-.49 0-.269-.306-.656-.738-.948a6.59 6.59 0 0 1-.667-.49c-.227-.205-.557-.885-.557-1.154 0-.434-.173-.79-.573-1.2-.29-.309-.55-.712-.911-1.43-.604-1.21-.589-1.383.047-.538.079.11.102.095.18-.11.158-.427.126-.965-.078-1.186-.243-.26-.494-.3-1.256-.205-.746.095-.965.055-2.182-.403-.44-.166-.888-.3-.99-.3-.306 0-.541.252-.588.64-.071.521-.29.513-1.076-.056-.651-.474-1.028-.656-1.39-.663a1.77 1.77 0 0 1-.486-.111c-.33-.142-.37-.403-.11-.75.212-.293.188-.878-.047-.949-.087-.024-.707-.024-1.374 0Zm3.258 3.35c1.091.324 1.923 1.312 1.923 2.292 0 .537-.463 1.651-1.342 3.263-.746 1.343-1.421 2.03-2.238 2.275-.518.15-.926.056-1.334-.3-.385-.34-.526-.71-.479-1.272.063-.687.353-1.225.918-1.66.26-.205.487-.45.519-.56.078-.324 0-.553-.22-.664-.29-.142-.644.032-1.115.53-.667.726-.942 1.54-.895 2.654.024.648.063.798.322 1.32.33.671.809 1.177 1.515 1.58.463.26.463.26.212.285-.966.095-2.127-.996-2.41-2.276-.157-.672-.157-1.723-.016-2.26.267-1.019 1.13-2.149 1.774-2.323.872-.237 1.618.403 1.335 1.146-.047.126-.33.466-.636.758-.33.316-.542.585-.542.688 0 .19.346.49.566.49.604 0 1.986-1.454 2.386-2.505.087-.23.118-.498.095-.845-.024-.427-.071-.57-.275-.814-.126-.166-.424-.395-.652-.522-.377-.197-.392-.213-.18-.213.392 0 .989.363 1.287.766.212.309.267.459.29.862.016.268-.007.616-.054.766-.102.3-.636 1.217-.895 1.54-1.201 1.463-1.97 1.77-2.701 1.1l-.18-.159v.332c0 .94.753 1.375 1.632.94.448-.229.707-.553 1.547-1.96 1.413-2.37 1.57-2.994.966-3.903-.487-.742-1.257-1.035-2.607-.98-1.358.064-2.308.451-3.47 1.415-1.264 1.05-1.9 2.323-1.97 3.903-.055 1.296.227 2.276 1.005 3.414.133.19.22.371.196.395-.07.07-.55-.38-.88-.83-.51-.695-.753-1.422-.8-2.363-.15-3.286 2.292-6.107 5.597-6.455.495-.047 1.366.024 1.806.15Zm2.873 1.09c.047.182.07.617.055.965-.023.624-.039.671-.644 1.864l-.62 1.217.463-.506c1.327-1.453 1.626-2.196 1.421-3.524-.062-.387-.062-.387.071-.205.33.458.448 1.493.236 2.086-.189.53-.628 1.17-1.162 1.699-.644.624-.997.869-1.076.735-.055-.087-.188.173-1.115 2.18-.518 1.107-1.664 1.668-2.779 1.36-.298-.087-.973-.656-.879-.751.024-.024.204.047.4.166.48.284 1.076.34 1.625.158.73-.245 1.24-.909 1.806-2.363.086-.205.518-1.13.974-2.054.997-2.039 1.09-2.426.855-3.5l-.039-.222.157.182c.086.103.204.332.251.514Zm-4.412.38c.424.095.817.395.982.743.164.347.157 1.027-.024 1.422-.133.308-.565.75-.722.75-.102 0-.095-.007.165-.568.55-1.162.157-1.913-.982-1.897-1.099.016-2.363.893-2.975 2.063-.377.726-.534 1.398-.526 2.299 0 .837.125 1.406.479 2.18.133.293.22.546.196.57-.094.094-.542-.459-.793-.972-.636-1.312-.494-3.153.37-4.591.517-.861 1.718-1.802 2.55-2a2.913 2.913 0 0 1 1.28 0Zm5.975 2.37c.007.83-1.123 2.276-2.332 2.987-.652.387-1.233.522-1.186.277.016-.087.212-.253.456-.388 1.507-.821 2.646-2.173 2.795-3.302l.055-.411.102.237c.055.126.102.403.11.6Zm.816 5.681c.126.048.204.135.204.238 0 .19-.063.197-.361.039a1.296 1.296 0 0 0-.479-.119c-.141 0-.259-.031-.259-.07 0-.15.581-.206.895-.088Zm-.11 1.36c0 .039-.173.063-.384.063-.26 0-.456-.056-.636-.182-.464-.308-.346-.364.353-.142.369.11.667.229.667.26ZM4.902 23.099c-.165.735-.746 1.43-1.437 1.699l-.345.134.384.166c.212.095.519.292.683.434.283.253.754 1.06.754 1.304 0 .063.04.119.079.119.047 0 .078-.056.078-.127 0-.063.087-.316.204-.545.236-.521.777-1.02 1.296-1.2l.376-.135-.526-.253c-.29-.134-.604-.332-.69-.435-.228-.253-.487-.75-.59-1.122-.093-.363-.195-.371-.266-.04Zm18.788-.842c-.078.102-.305.379-.494.616-.243.316-.486.513-.879.711-.29.15-.565.34-.605.41-.039.072-.062.404-.047.752.016.576 0 .64-.235 1.003-.377.569-.346 1.24.07 1.683.236.253.55.23.888-.071.345-.3.51-.617 1.162-2.276.62-1.564.722-1.944.651-2.425-.078-.577-.251-.712-.51-.403Z"/></svg>